<?xml version="1.0" encoding="iso-8859-1"?>
<!-- Uploaded to: SVG Repo, www.svgrepo.com, Generator: SVG Repo Mixer Tools -->
<svg height="800px" width="800px" version="1.1" id="Layer_1" xmlns="http://www.w3.org/2000/svg" xmlns:xlink="http://www.w3.org/1999/xlink" 
	 viewBox="0 0 509.117 509.117" xml:space="preserve">
<g transform="translate(1 1)">
	<path style="fill:#FCC309;" d="M461.914,305.626l-62.481,52.068l-92.854,34.712H166.863l-92.854,52.068l-35.58-97.193
		c-8.678-22.563,0-48.597,19.959-59.878l53.803-26.034c2.603-2.603,12.149-8.678,15.62-8.678l85.044-8.678l69.424-26.034
		c10.414-5.207,26.902-3.471,31.241,8.678c4.339,12.149-5.207,29.505-15.62,34.712l-45.993,18.224
		c-10.414,8.678-10.414,26.902,0,34.712h108.475l69.424-43.39c11.281-7.81,30.373-19.959,39.051-8.678
		C478.402,275.253,474.063,296.08,461.914,305.626"/>
	<path style="fill:#54C9FD;" d="M87.026,166.779h347.119V62.643H87.026V166.779z"/>
	<path style="fill:#33A9F8;" d="M434.144,166.779h26.034V62.643h-26.034V166.779z"/>
	<path style="fill:#FFFFFF;" d="M60.992,166.779h26.034V62.643H60.992V166.779z"/>
	<g>
		<path style="fill:#33A9F8;" d="M113.06,166.779h34.712V62.643H113.06V166.779z"/>
		<path style="fill:#33A9F8;" d="M373.399,166.779h34.712V62.643h-34.712V166.779z"/>
	</g>
	<path style="fill:#FD9808;" d="M494.89,262.236c-6.942-8.678-20.827-8.678-32.108-5.207c2.603,0.868,5.207,2.603,6.942,5.207
		c8.678,13.017,4.339,33.844-6.942,43.39l-63.349,52.068l-92.854,34.712h6.075l104.136-34.712l69.424-52.068
		C500.097,296.08,505.304,275.253,494.89,262.236"/>
	<path style="fill:#FFFFFF;" d="M113.06,253.558c-3.471,0-13.885,6.075-17.356,8.678L34.958,288.27
		c-22.563,10.414-32.108,36.447-22.563,59.878l39.919,96.325l18.224-8.678L38.429,347.28c-8.678-22.563,0-48.597,19.959-59.878
		l53.803-26.034c2.603-2.603,12.149-8.678,15.62-8.678"/>
	<g>
		<path style="fill:#020101;" d="M52.314,453.152c-0.868,0-1.736,0-3.471-0.868c-2.603-0.868-4.339-2.603-5.207-5.207L3.717,349.884
			c-12.149-26.902,0-58.142,26.902-70.292l59.878-25.166c4.339-2.603,15.62-9.546,22.563-9.546l93.722-8.678l77.234-26.034
			c9.546-4.339,21.695-4.339,31.241-0.868c6.942,2.603,12.149,7.81,14.753,13.885c6.942,17.356-6.075,39.051-21.695,45.993
			l-51.2,17.356c-2.603,2.603-4.339,6.942-4.339,10.414c0,2.603,0.868,6.075,2.603,7.81h115.417l75.498-50.332
			c14.753-9.546,41.654-14.753,54.671,1.736c6.075,6.942,7.81,16.488,6.942,26.902c-1.736,11.281-7.81,22.563-16.488,28.637
			l-69.424,52.068c-0.868,0.868-1.736,0.868-2.603,0.868l-104.136,34.712c-0.868,1.736-1.736,1.736-2.603,1.736H158.185l-102.4,51.2
			C54.917,453.152,54.049,453.152,52.314,453.152z M300.504,224.921c-3.471,0-6.942,0.868-10.414,1.736l-78.969,26.034
			c-0.868,0-0.868,0-1.736,0l-95.458,8.678c-2.603,0-9.546,4.339-13.017,6.942c-0.868,0.868-0.868,0.868-1.736,0.868l-60.746,26.034
			c-18.224,8.678-26.034,29.505-18.224,47.729l36.447,88.515l95.458-47.729c1.736,0,2.603,0,4.339,0h154.468l101.532-33.844
			l68.556-51.2l0,0c5.207-3.471,8.678-10.414,9.546-17.356c0.868-5.207,0-10.414-3.471-13.885
			c-5.207-6.942-22.563-4.339-32.108,1.736l-78.102,52.068c0,0.868-1.736,1.736-3.471,1.736H251.907
			c-1.736,0-3.471-0.868-4.339-1.736c-7.81-5.207-12.149-13.017-13.017-22.563c0-10.414,4.339-19.959,12.149-26.034
			c0.868-0.868,1.736-0.868,2.603-1.736l52.068-17.356c7.81-3.471,14.753-16.488,12.149-23.431
			c-0.868-1.736-2.603-3.471-5.207-4.339C305.711,224.921,303.107,224.921,300.504,224.921z M416.788,357.694L416.788,357.694
			L416.788,357.694z"/>
		<path style="fill:#020101;" d="M460.178,175.457H60.992c-5.207,0-8.678-3.471-8.678-8.678V62.643c0-5.207,3.471-8.678,8.678-8.678
			h399.186c5.207,0,8.678,3.471,8.678,8.678v104.136C468.856,171.985,465.385,175.457,460.178,175.457z M69.67,158.101H451.5v-86.78
			H69.67V158.101z"/>
		<path style="fill:#020101;" d="M147.772,175.457H113.06c-5.207,0-8.678-3.471-8.678-8.678V62.643c0-5.207,3.471-8.678,8.678-8.678
			h34.712c5.207,0,8.678,3.471,8.678,8.678v104.136C156.449,171.985,152.978,175.457,147.772,175.457z M121.738,158.101h17.356
			v-86.78h-17.356V158.101z"/>
		<path style="fill:#020101;" d="M408.111,175.457h-34.712c-5.207,0-8.678-3.471-8.678-8.678V62.643
			c0-5.207,3.471-8.678,8.678-8.678h34.712c5.207,0,8.678,3.471,8.678,8.678v104.136
			C416.788,171.985,413.317,175.457,408.111,175.457z M382.077,158.101h17.356v-86.78h-17.356V158.101z"/>
		<path style="fill:#020101;" d="M321.331,123.389H199.839c-5.207,0-8.678-3.471-8.678-8.678s3.471-8.678,8.678-8.678h121.492
			c5.207,0,8.678,3.471,8.678,8.678S326.538,123.389,321.331,123.389z"/>
	</g>
</g>
</svg>